<svg width="62" height="56" fill="none" xmlns="http://www.w3.org/2000/svg"><g clip-path="url(#clip0_3_326)" fill="#E51D3E"><path d="M49.754 46.941h4.417v.314c.002 1.55.007 3.102.01 4.652 0 .106.052.16.156.16h.741c.042 0 .082.002.132.004 0 .048.005.086.005.124 0 .974 0 1.947.002 2.92 0 .104-.027.14-.129.14-.3.002-.6.01-.9.022-.097.003-.122-.035-.122-.129.005-.61 0-1.216.003-1.825 0-.084-.02-.117-.11-.117-1.43.003-2.861 0-4.292 0a.687.687 0 00-.092.008c0 .048-.005.093-.005.139 0 .597-.002 1.193 0 1.79 0 .104-.03.14-.129.134-.305-.013-.607-.018-.912-.028-.028 0-.052-.01-.087-.015v-3.17h.62c.228 0 .285-.023.355-.248a5.29 5.29 0 00.193-.797c.141-.953.127-1.916.141-2.877.008-.397 0-.79 0-1.203l.003.002zm.818 5.125h.151c.69 0 1.382-.002 2.071.003.114 0 .152-.023.15-.147-.006-1.239-.003-2.48-.003-3.719v-.129h-2.034c-.022.673-.037 1.335-.067 1.997a10.252 10.252 0 01-.268 1.995zm5.394-1.686c.015-1.072.3-1.934.967-2.642a2.939 2.939 0 011.96-.946c.795-.068 1.517.124 2.125.663.565.5.855 1.153.947 1.896.104.837-.022 1.638-.431 2.376-.484.873-1.206 1.436-2.18 1.603-.86.15-1.67-.007-2.356-.594-.548-.465-.848-1.077-.97-1.785-.037-.222-.047-.452-.06-.574l-.002.003zm1.27-.29c.01.416.08.79.255 1.14.494.983 1.684 1.248 2.51.556.337-.281.538-.655.64-1.08.174-.74.102-1.444-.35-2.076-.573-.804-1.79-.875-2.457-.154-.427.46-.578 1.024-.598 1.608v.005zm-14.749 4.58c.157.03.298.069.442.084.37.035.692-.094.967-.337.499-.44.786-1.026 1.079-1.623-.134 0-.256-.007-.375 0-.094.008-.136-.027-.168-.113-.407-1.05-.819-2.099-1.228-3.145l-.957-2.448c-.013-.033-.02-.066-.035-.114.107-.007.206-.012.303-.025.317-.035.635-.068.952-.109.082-.01.114.02.141.094.296.791.593 1.583.89 2.371.261.696.524 1.39.787 2.086l.042.109c.037-.094.067-.164.094-.235l1.387-3.689c.081-.215.158-.432.243-.647.012-.03.057-.073.081-.07.375.02.747.047 1.119.075.01 0 .022.008.04.013l-.499 1.291c-.58 1.507-1.156 3.017-1.738 4.523-.305.79-.633 1.568-1.129 2.258-.285.4-.62.744-1.098.898-.372.121-.747.093-1.116-.02a.146.146 0 01-.085-.084 2.687 2.687 0 01-.143-1.148l.004.005zm-2.735-4.012c-.288.096-.563.2-.843.276-.645.17-1.297.25-1.954.101-.603-.136-.995-.518-1.131-1.165a4.652 4.652 0 01-.08-.852c-.012-.582 0-1.16-.007-1.742 0-.107.032-.162.126-.188l.843-.24c.085-.022.172-.04.273-.065.003.05.008.093.008.139 0 .703 0 1.405.005 2.106.005.599.36.852.868.9.62.058 1.21-.069 1.778-.319.087-.038.116-.086.114-.184-.015-.81-.027-1.616-.04-2.425 0-.008.003-.015.005-.056.414-.015.826-.033 1.265-.048l.037 6.285c-.007 0-.047.013-.087.018-.327.026-.652.056-.98.071-.193.01-.183.038-.185-.19-.008-.768-.013-1.537-.02-2.308v-.111l.005-.003zM28.77 48.635c.008-.192.01-.392-.072-.576-.116-.268-.344-.364-.61-.377a1.97 1.97 0 00-1.262.364c-.005.005-.012.008-.03.016-.02-.092-.042-.177-.057-.266-.015-.099-.02-.202-.032-.3-.005-.046.008-.074.045-.102.285-.217.607-.341.957-.404a2.37 2.37 0 01.779-.016c.287.046.54.157.731.39.154.19.231.412.263.65.018.141.027.285.027.427.008.42.003.837.013 1.256.007.344.047.683.156 1.017a.88.88 0 01-.33.118c-.081.018-.163.023-.245.038-.042.008-.067-.005-.08-.045-.06-.19-.119-.38-.176-.57-.017-.055-.022-.113-.037-.184l-.087.14c-.29.482-.887.763-1.44.677-.338-.05-.598-.21-.737-.533a1.095 1.095 0 01-.035-.78c.112-.366.372-.59.704-.737.375-.167.774-.208 1.178-.203h.377zm-.044.519a2.464 2.464 0 00-1.02.075.787.787 0 00-.409.273c-.19.264-.076.63.233.711a.785.785 0 00.335.008c.489-.094.804-.584.86-1.067zm2.517-2.218v1.687a.892.892 0 00.491-.127c.169-.106.283-.26.372-.437.121-.24.228-.488.362-.72.179-.31.464-.423.808-.385.112.013.221.043.333.068.035.008.052.026.052.069-.008.22-.07.422-.149.627-.044-.02-.082-.04-.124-.054-.146-.05-.27-.002-.36.112a2.753 2.753 0 00-.203.326c-.121.222-.23.455-.404.65.454.672.905 1.342 1.364 2.025-.087.012-.164.03-.24.035l-.561.043c-.04.003-.062-.01-.084-.045-.298-.478-.596-.956-.896-1.434-.05-.078-.099-.16-.139-.222-.213.032-.414.065-.615.096v1.557c-.243.008-.49.018-.756.025v-.442c0-1.052 0-2.104-.005-3.153 0-.053.015-.083.064-.098.224-.066.447-.132.685-.2l.005-.003zm-7.842 2.301v1.57l-.739.026c-.002-.043-.005-.069-.005-.094-.005-.756-.01-1.514-.012-2.27v-1.234c0-.05.015-.078.062-.094.226-.065.449-.134.687-.202v1.686c.26-.002.483-.078.66-.27.173-.187.265-.422.369-.65.09-.192.176-.384.327-.536.186-.187.415-.24.663-.215.119.013.235.046.352.074.017.005.042.032.042.048 0 .225-.065.432-.146.64-.045-.021-.08-.039-.12-.051a.312.312 0 00-.374.124 2.84 2.84 0 00-.203.333c-.117.218-.226.438-.392.627l1.361 2.02c-.047.01-.087.02-.126.026-.218.02-.437.035-.655.055-.05.005-.08-.01-.107-.053l-.999-1.608c-.027-.043-.05-.048-.1-.038-.158.033-.317.053-.475.079-.023.002-.045.005-.067.005l-.003.002zm-2.274-7.607v-.134c0-.718 0-1.436-.002-2.154 0-.104.03-.162.126-.188.365-.103.732-.212 1.116-.323v2.814c.28-.003.528-.058.757-.205.282-.184.46-.458.605-.758.161-.34.307-.686.471-1.022.067-.136.156-.263.25-.379.293-.356.682-.47 1.121-.427.186.017.37.073.553.116.06.013.087.048.085.116-.013.362-.117.7-.243 1.042a.793.793 0 01-.077-.038c-.253-.14-.494-.111-.677.111a2.8 2.8 0 00-.303.47c-.218.392-.426.787-.654 1.209.699 1.085 1.423 2.207 2.16 3.347-.06.013-.105.023-.147.028-.394.035-.79.07-1.185.109-.072.007-.1-.033-.132-.089a1542.91 1542.91 0 00-1.572-2.675c-.02-.032-.042-.065-.047-.075l-.945.162v2.58a5.974 5.974 0 01-1.242.036v-2.611c-.333-.056-.645-.107-.98-.165l-.397.673c-.407.697-.813 1.395-1.222 2.09-.02.033-.07.071-.102.069-.437-.036-.876-.079-1.312-.119-.01 0-.02-.01-.04-.025.724-1.125 1.449-2.245 2.178-3.376-.352-.422-.536-.942-.814-1.405a1.295 1.295 0 00-.258-.311c-.183-.162-.382-.152-.667.02-.067-.233-.136-.458-.196-.685-.022-.091-.024-.187-.034-.28-.018-.183-.02-.188.15-.233.308-.086.618-.134.936-.066.434.093.71.382.905.758.171.334.313.68.474 1.02.168.353.38.674.744.854.17.086.456.144.627.119h-.01zm6.59 3.668v-.753c0-1.74 0-3.477-.008-5.216 0-.086.02-.14.107-.164.377-.11.751-.22 1.143-.337v4.584l.025.01c.077-.111.156-.225.233-.339.9-1.33 1.8-2.662 2.703-3.99.032-.045.09-.098.142-.103.372-.033.744-.055 1.118-.078.022 0 .045.005.08.01.086 2.116-.028 4.23.091 6.376-.416.03-.83.063-1.274.096-.05-1.6-.023-3.17-.057-4.748-.107.16-.214.319-.318.48l-1.79 2.744c-.273.417-.549.834-.816 1.256-.065.099-.127.157-.253.16-.313.002-.623.022-.935.032-.053 0-.107-.007-.191-.015v-.005zm14.485-6.475v2.693h2.989c.002-.03.01-.066.007-.099-.017-.773-.035-1.544-.057-2.318 0-.073.01-.111.087-.116.357-.023.714-.048 1.071-.076.087-.008.117.023.117.111.007.518.02 1.037.025 1.552.01 1.328.012 2.652.022 3.98 0 .237.022.475.037.73-.233.028-.461.059-.692.076-.154.013-.307 0-.461.013-.094.005-.12-.03-.122-.119-.007-.597-.02-1.193-.027-1.79a29.928 29.928 0 010-.67c0-.08-.022-.109-.104-.109-.93.003-1.858.003-2.788 0-.091 0-.109.033-.106.117l.034 2.305v.182c-.396.008-.783.013-1.172.02-.067 0-.085-.032-.087-.093 0-.187-.013-.377-.013-.564-.005-1.777-.007-3.554-.007-5.332 0-.045.027-.121.06-.131.386-.124.776-.24 1.185-.364l.002.002zm7.676.026v2.54c.18-.012.347-.03.516-.037.625-.033 1.247-.043 1.855.149.444.141.84.361 1.059.796.347.695.27 1.38-.157 2.015-.337.506-.85.761-1.413.91-.489.13-.99.157-1.49.134-.502-.025-1-.06-1.501-.086-.087-.005-.12-.03-.12-.124.003-1.946 0-3.89 0-5.837 0-.076.023-.12.093-.14.292-.085.583-.171.875-.255.087-.025.179-.043.283-.065zm.007 5.425c.4.068.796.081 1.19.046.293-.028.576-.104.822-.284.315-.23.429-.546.362-.925-.062-.359-.31-.546-.635-.64-.54-.159-1.089-.116-1.637-.04-.084.013-.112.048-.112.137.005.533 0 1.067.003 1.6 0 .035.005.068.007.109v-.003zM38.257 41.84c.158.07.317.123.459.207.438.265.617.685.632 1.183.03.913-.469 1.626-1.35 1.947-.756.275-1.524.275-2.298.108-.201-.043-.4-.118-.595-.184a.205.205 0 01-.11-.091c-.118-.243-.183-.847-.128-1.123.19.066.379.14.572.195.61.174 1.228.23 1.848.073.188-.048.382-.139.538-.258.427-.326.36-.884-.119-1.125-.39-.194-.8-.202-1.22-.177-.169.01-.337.028-.538.046l-.179-1.145c.189.015.34.027.491.035.385.023.762 0 1.124-.147.337-.139.52-.432.466-.75-.047-.269-.226-.413-.461-.496-.462-.162-.928-.134-1.39-.013-.272.071-.535.187-.823.288-.022-.083-.062-.192-.076-.305a8.48 8.48 0 01-.07-.665c-.002-.04.037-.101.075-.124.302-.18.635-.28.977-.347.58-.116 1.163-.131 1.743.013.382.094.727.266.982.579.519.637.362 1.651-.322 2.126-.072.05-.149.099-.223.147l-.005.002z"/><path d="M4.71 45.316c-.618 0-.92-.28-1.067-.516-.429-.688-.002-1.686.575-2.948-.984.084-2.512-.078-3.544-1.94a.608.608 0 01-.02-.55.596.596 0 01.427-.337c4.367-.814 5.06-3.615 5.087-3.734a.587.587 0 01.702-.455.602.602 0 01.448.718c-.007.04-.218.981-1.086 2.02-.684.82-1.922 1.856-4.042 2.433.754.786 1.661.718 2.475.573.35-.06.71-.123.96.205a.667.667 0 01.069.68c-.107.24-.218.48-.325.716-.275.599-.724 1.57-.727 1.934l.067.002c.596 0 .923-.53 1.41-1.4.557-.996 1.249-2.24 2.841-2.19.228.008.779.101 1.005.83.099.316.119.69.139 1.084.064 1.198.19 1.608.81 1.674h.038c.129-.238.121-1.16.114-1.909-.005-.612-.013-1.305.022-2.088a.759.759 0 01.25-.539c.308-.278.752-.248 1.181-.215.04.003.09.008.141.01-.228-1.668-1.21-4.093-2.338-5.94-1.503.25-2.545.313-2.86.275-1.049-.124-1.575-.58-1.83-.94-.32-.45-.422-1.02-.295-1.65.057-.282.263-.985.922-1.367.546-.316 1.238-.326 2.056-.033.96.344 1.858 1.348 2.57 2.384a37.487 37.487 0 006.083-1.706c-2.11-1.082-3.755-2.29-5.034-3.494-5.1-4.796-5.112-9.974-4.995-11.448.342-4.296 2.058-6.662 4.71-6.495 1.617.101 2.894 1.236 3.692 3.28.033.082.062.163.092.244.98-3.8 2.884-8.047 6.587-10.565C24.822.015 27.667-.238 29.393.162c1.674.387 3.241 1.53 4.303 3.132.88 1.333 1.84 3.636 1.4 7.049-.624 4.872-2.415 9.134-5.316 12.671-2.336 2.85-5.392 5.226-9.077 7.064a39.18 39.18 0 01-.74.36c1.943.758 4.095 1.36 6.449 1.8 7.184 1.34 16.155 1.134 26.662-.61.32-.053.625.17.677.495a.6.6 0 01-.486.69c-6.334 1.052-11.8 1.5-16.509 1.5-8.154 0-14.05-1.34-18.305-3.208a38.422 38.422 0 01-6.877 2.098c.164.286.31.556.434.794 1.05 2.028 1.786 4.273 1.875 5.716a.774.774 0 01-.22.605c-.31.313-.774.278-1.223.245l-.184-.013a41.1 41.1 0 00-.007 1.646c.012 1.406.02 2.334-.511 2.827-.169.156-.469.333-.938.285-1.726-.18-1.815-1.82-1.867-2.804-.013-.25-.032-.611-.082-.778-.789.015-1.166.617-1.706 1.582-.499.893-1.121 2.005-2.433 2.005l-.003.003zm2.514-14.603a.768.768 0 00-.384.088c-.24.14-.323.44-.35.564-.06.293-.027.528.097.7.166.233.526.395 1.012.45.153.013.87-.025 1.976-.19-.568-.748-1.14-1.289-1.649-1.47a2.134 2.134 0 00-.7-.145l-.002.003zm4.171-20.56c-2.477 0-3.12 3.363-3.283 5.4-.107 1.338-.09 6.04 4.618 10.467 1.582 1.49 3.497 2.749 5.726 3.777.59-.252 1.19-.53 1.79-.831 3.522-1.768 6.434-4.04 8.653-6.756 2.74-3.352 4.432-7.397 5.025-12.024.71-5.516-2.48-8.318-4.796-8.854-1.422-.328-3.963-.11-6.458 1.586-4.239 2.882-5.947 8.328-6.637 12.388a.59.59 0 01-.603.498.595.595 0 01-.563-.546c-.004-.048-.486-4.925-3.295-5.102-.06-.005-.12-.005-.179-.005l.002.002z"/><path d="M3.286 29.706a.59.59 0 01-.558-.407.605.605 0 01.22-.685c.132-.096.49-.427.541-.788.018-.117.018-.301-.176-.56a2.116 2.116 0 01-.397-.9 2.035 2.035 0 01.844-2.035 1.955 1.955 0 012.175-.075c.342.212.642.52.887.922.578.933.668 1.94.248 2.761-.379.741-1.339 1.651-3.76 1.77h-.027l.003-.003zm1.624-4.543a.836.836 0 00-.48.16.824.824 0 00-.353.831c.025.134.082.26.174.387.34.455.478.966.399 1.474a2.386 2.386 0 01-.072.306c.73-.19 1.23-.508 1.448-.938.221-.43.147-1.001-.2-1.565a1.61 1.61 0 00-.501-.533.789.789 0 00-.417-.122h.002z"/><path d="M1.962 24.976h-.055a1 1 0 01-.865-.607l-.965-2.207a.915.915 0 01.146-.965.872.872 0 01.923-.258l1.969.634.717-1.256c.196-.344.565-.551.954-.539.392.013.744.243.918.6l.749 1.524c.198.404.141.89-.149 1.236a1.09 1.09 0 01-1.175.344l-1.47-.475-.832 1.456a.997.997 0 01-.868.51l.003.003zm-.538-2.687l.56 1.276.528-.925-1.088-.351zm2.847-.341l1.056.34-.578-1.177-.478.837z"/></g><defs><clipPath id="clip0_3_326"><path fill="#fff" d="M0 0h62v56H0z"/></clipPath></defs></svg>